ffmpeg version 4.2.4-1ubuntu0.1 Copyright (c) 2000-2020 the FFmpeg developers
  built with gcc 9 (Ubuntu 9.3.0-10ubuntu2)
  configuration: --prefix=/usr --extra-version=1ubuntu0.1 --toolchain=hardened --libdir=/usr/lib/x86_64-linux-gnu --incdir=/usr/include/x86_64-linux-gnu --arch=amd64 --enable-gpl --disable-stripping --enable-avresample --disable-filter=resample --enable-avisynth --enable-gnutls --enable-ladspa --enable-libaom --enable-libass --enable-libbluray --enable-libbs2b --enable-libcaca --enable-libcdio --enable-libcodec2 --enable-libflite --enable-libfontconfig --enable-libfreetype --enable-libfribidi --enable-libgme --enable-libgsm --enable-libjack --enable-libmp3lame --enable-libmysofa --enable-libopenjpeg --enable-libopenmpt --enable-libopus --enable-libpulse --enable-librsvg --enable-librubberband --enable-libshine --enable-libsnappy --enable-libsoxr --enable-libspeex --enable-libssh --enable-libtheora --enable-libtwolame --enable-libvidstab --enable-libvorbis --enable-libvpx --enable-libwavpack --enable-libwebp --enable-libx265 --enable-libxml2 --enable-libxvid --enable-libzmq --enable-libzvbi --enable-lv2 --enable-omx --enable-openal --enable-opencl --enable-opengl --enable-sdl2 --enable-libdc1394 --enable-libdrm --enable-libiec61883 --enable-nvenc --enable-chromaprint --enable-frei0r --enable-libx264 --enable-shared
  WARNING: library configuration mismatch
  avcodec     configuration: --prefix=/usr --extra-version=1ubuntu0.1 --toolchain=hardened --libdir=/usr/lib/x86_64-linux-gnu --incdir=/usr/include/x86_64-linux-gnu --arch=amd64 --enable-gpl --disable-stripping --enable-avresample --disable-filter=resample --enable-avisynth --enable-gnutls --enable-ladspa --enable-libaom --enable-libass --enable-libbluray --enable-libbs2b --enable-libcaca --enable-libcdio --enable-libcodec2 --enable-libflite --enable-libfontconfig --enable-libfreetype --enable-libfribidi --enable-libgme --enable-libgsm --enable-libjack --enable-libmp3lame --enable-libmysofa --enable-libopenjpeg --enable-libopenmpt --enable-libopus --enable-libpulse --enable-librsvg --enable-librubberband --enable-libshine --enable-libsnappy --enable-libsoxr --enable-libspeex --enable-libssh --enable-libtheora --enable-libtwolame --enable-libvidstab --enable-libvorbis --enable-libvpx --enable-libwavpack --enable-libwebp --enable-libx265 --enable-libxml2 --enable-libxvid --enable-libzmq --enable-libzvbi --enable-lv2 --enable-omx --enable-openal --enable-opencl --enable-opengl --enable-sdl2 --enable-libdc1394 --enable-libdrm --enable-libiec61883 --enable-nvenc --enable-chromaprint --enable-frei0r --enable-libx264 --enable-shared --enable-version3 --disable-doc --disable-programs --enable-libaribb24 --enable-liblensfun --enable-libopencore_amrnb --enable-libopencore_amrwb --enable-libtesseract --enable-libvo_amrwbenc
  libavutil      56. 31.100 / 56. 31.100
  libavcodec     58. 54.100 / 58. 54.100
  libavformat    58. 29.100 / 58. 29.100
  libavdevice    58.  8.100 / 58.  8.100
  libavfilter     7. 57.100 /  7. 57.100
  libavresample   4.  0.  0 /  4.  0.  0
  libswscale      5.  5.100 /  5.  5.100
  libswresample   3.  5.100 /  3.  5.100
  libpostproc    55.  5.100 / 55.  5.100
Input #0, image2pipe, from 'pipe:':
  Duration: N/A, bitrate: N/A
    Stream #0:0: Video: ppm, rgb24, 800x350, 25 fps, 25 tbr, 25 tbn, 25 tbc
Stream mapping:
  Stream #0:0 -> #0:0 (ppm (native) -> h264 (libx264))
[libx264 @ 0x5555555e0800] using cpu capabilities: MMX2 SSE2Fast SSSE3 SSE4.2 AVX FMA3 BMI2 AVX2 AVX512
[libx264 @ 0x5555555e0800] profile High, level 3.0
Output #0, mpegts, to 'shearMovie.mp4':
  Metadata:
    encoder         : Lavf58.29.100
    Stream #0:0: Video: h264 (libx264), yuv420p, 800x350, q=-1--1, 25 fps, 90k tbn, 25 tbc
    Metadata:
      encoder         : Lavc58.54.100 libx264
    Side data:
      cpb: bitrate max/min/avg: 0/0/0 buffer size: 0 vbv_delay: -1
frame=    8 fps=0.4 q=17.0 size=      50kB time=00:00:00.28 bitrate=1466.3kbits/s speed=0.0139x    frame=    9 fps=0.2 q=17.0 size=      58kB time=00:00:00.32 bitrate=1475.7kbits/s speed=0.00793x    frame=   10 fps=0.2 q=17.0 size=      66kB time=00:00:00.36 bitrate=1495.6kbits/s speed=0.00611x    frame=   11 fps=0.1 q=17.0 size=      74kB time=00:00:00.40 bitrate=1519.0kbits/s speed=0.00513x    frame=   12 fps=0.1 q=18.0 size=      83kB time=00:00:00.44 bitrate=1548.4kbits/s speed=0.00456x    frame=   13 fps=0.1 q=18.0 size=      92kB time=00:00:00.48 bitrate=1572.9kbits/s speed=0.00427x    frame=   14 fps=0.1 q=18.0 size=     101kB time=00:00:00.52 bitrate=1587.8kbits/s speed=0.00408x    frame=   15 fps=0.1 q=18.0 size=     109kB time=00:00:00.56 bitrate=1595.3kbits/s speed=0.00391x    frame=   16 fps=0.1 q=18.0 size=     116kB time=00:00:00.60 bitrate=1584.2kbits/s speed=0.00367x    frame=   17 fps=0.1 q=17.0 size=     123kB time=00:00:00.64 bitrate=1572.1kbits/s speed=0.00353x    frame=   18 fps=0.1 q=17.0 size=     129kB time=00:00:00.68 bitrate=1559.3kbits/s speed=0.00341x    frame=   19 fps=0.1 q=17.0 size=     137kB time=00:00:00.72 bitrate=1562.5kbits/s speed=0.00328x    frame=   20 fps=0.1 q=18.0 size=     145kB time=00:00:00.76 bitrate=1563.3kbits/s speed=0.00317x    frame=   21 fps=0.1 q=17.0 size=     153kB time=00:00:00.80 bitrate=1564.1kbits/s speed=0.0031x    frame=   22 fps=0.1 q=17.0 size=     160kB time=00:00:00.84 bitrate=1561.3kbits/s speed=0.00302x    frame=   23 fps=0.1 q=17.0 size=     166kB time=00:00:00.88 bitrate=1546.7kbits/s speed=0.00294x    frame=   24 fps=0.1 q=17.0 size=     173kB time=00:00:00.92 bitrate=1539.9kbits/s speed=0.00289x    frame=   25 fps=0.1 q=17.0 size=     180kB time=00:00:00.96 bitrate=1538.4kbits/s speed=0.00286x    frame=   26 fps=0.1 q=17.0 size=     188kB time=00:00:01.00 bitrate=1541.6kbits/s speed=0.00284x    frame=   27 fps=0.1 q=17.0 size=     196kB time=00:00:01.04 bitrate=1545.9kbits/s speed=0.00282x    frame=   28 fps=0.1 q=17.0 size=     203kB time=00:00:01.08 bitrate=1543.0kbits/s speed=0.00281x    frame=   29 fps=0.1 q=17.0 size=     210kB time=00:00:01.12 bitrate=1538.9kbits/s speed=0.00279x    frame=   30 fps=0.1 q=17.0 size=     217kB time=00:00:01.16 bitrate=1531.2kbits/s speed=0.00276x    frame=   31 fps=0.1 q=17.0 size=     223kB time=00:00:01.20 bitrate=1522.8kbits/s speed=0.00274x    frame=   32 fps=0.1 q=17.0 size=     228kB time=00:00:01.24 bitrate=1508.8kbits/s speed=0.00272x    frame=   33 fps=0.1 q=17.0 size=     236kB time=00:00:01.28 bitrate=1507.5kbits/s speed=0.00269x    frame=   34 fps=0.1 q=17.0 size=     242kB time=00:00:01.32 bitrate=1500.6kbits/s speed=0.00267x    frame=   35 fps=0.1 q=17.0 size=     248kB time=00:00:01.36 bitrate=1492.9kbits/s speed=0.00265x    frame=   36 fps=0.1 q=17.0 size=     253kB time=00:00:01.40 bitrate=1482.5kbits/s speed=0.00264x    frame=   37 fps=0.1 q=17.0 size=     256kB time=00:00:01.44 bitrate=1456.3kbits/s speed=0.00264x    frame=   38 fps=0.1 q=17.0 size=     256kB time=00:00:01.48 bitrate=1417.0kbits/s speed=0.00264x    frame=   39 fps=0.1 q=17.0 size=     256kB time=00:00:01.52 bitrate=1379.7kbits/s speed=0.00264x    frame=   40 fps=0.1 q=17.0 size=     256kB time=00:00:01.56 bitrate=1344.3kbits/s speed=0.00263x    frame=   41 fps=0.1 q=17.0 size=     256kB time=00:00:01.60 bitrate=1310.7kbits/s speed=0.00263x    frame=   42 fps=0.1 q=17.0 size=     256kB time=00:00:01.64 bitrate=1278.7kbits/s speed=0.00262x    frame=   43 fps=0.1 q=17.0 size=     256kB time=00:00:01.68 bitrate=1248.3kbits/s speed=0.00261x    frame=   44 fps=0.1 q=17.0 size=     256kB time=00:00:01.72 bitrate=1219.3kbits/s speed=0.00261x    frame=   45 fps=0.1 q=17.0 size=     256kB time=00:00:01.76 bitrate=1191.6kbits/s speed=0.0026x    frame=   46 fps=0.1 q=17.0 size=     256kB time=00:00:01.80 bitrate=1165.1kbits/s speed=0.00259x    frame=   47 fps=0.1 q=17.0 size=     256kB time=00:00:01.84 bitrate=1139.7kbits/s speed=0.00258x    frame=   48 fps=0.1 q=18.0 size=     256kB time=00:00:01.88 bitrate=1115.5kbits/s speed=0.00256x    frame=   49 fps=0.1 q=18.0 size=     256kB time=00:00:01.92 bitrate=1092.3kbits/s speed=0.00257x    frame=   50 fps=0.1 q=18.0 size=     256kB time=00:00:01.96 bitrate=1070.0kbits/s speed=0.00257x    frame=   51 fps=0.1 q=18.0 size=     256kB time=00:00:02.00 bitrate=1048.6kbits/s speed=0.00255x    frame=   52 fps=0.1 q=18.0 size=     256kB time=00:00:02.04 bitrate=1028.0kbits/s speed=0.00253x    frame=   53 fps=0.1 q=17.0 size=     256kB time=00:00:02.08 bitrate=1008.2kbits/s speed=0.00252x    frame=   54 fps=0.1 q=17.0 size=     256kB time=00:00:02.12 bitrate= 989.2kbits/s speed=0.0025x    frame=   55 fps=0.1 q=17.0 size=     256kB time=00:00:02.16 bitrate= 970.9kbits/s speed=0.00249x    frame=   56 fps=0.1 q=17.0 size=     256kB time=00:00:02.20 bitrate= 953.2kbits/s speed=0.00249x    frame=   57 fps=0.1 q=17.0 size=     256kB time=00:00:02.24 bitrate= 936.2kbits/s speed=0.00248x    frame=   58 fps=0.1 q=17.0 size=     256kB time=00:00:02.28 bitrate= 919.8kbits/s speed=0.00247x    Error while decoding stream #0:0: Invalid data found when processing input
frame=   58 fps=0.1 q=17.0 size=     256kB time=00:00:02.28 bitrate= 919.8kbits/s speed=0.00242x    frame=   58 fps=0.1 q=17.0 Lsize=     400kB time=00:00:02.28 bitrate=1437.4kbits/s speed=0.00241x    
video:365kB audio:0kB subtitle:0kB other streams:0kB global headers:0kB muxing overhead: 9.649306%
[libx264 @ 0x5555555e0800] frame I:2     Avg QP:13.43  size:  5804
[libx264 @ 0x5555555e0800] frame P:56    Avg QP:10.54  size:  6464
[libx264 @ 0x5555555e0800] mb I  I16..4: 52.5% 39.7%  7.8%
[libx264 @ 0x5555555e0800] mb P  I16..4: 28.3%  6.4%  1.5%  P16..4: 16.6%  9.2%  5.1%  0.0%  0.0%    skip:32.9%
[libx264 @ 0x5555555e0800] 8x8 transform intra:19.7% inter:45.4%
[libx264 @ 0x5555555e0800] coded y,uvDC,uvAC intra: 9.9% 29.7% 27.3% inter: 14.6% 35.0% 18.0%
[libx264 @ 0x5555555e0800] i16 v,h,dc,p: 51% 26% 23%  0%
[libx264 @ 0x5555555e0800] i8 v,h,dc,ddl,ddr,vr,hd,vl,hu: 15% 18% 53%  1%  2%  1%  4%  1%  5%
[libx264 @ 0x5555555e0800] i4 v,h,dc,ddl,ddr,vr,hd,vl,hu:  4% 51% 24%  2%  3%  2%  6%  2%  6%
[libx264 @ 0x5555555e0800] i8c dc,h,v,p: 60% 34%  4%  2%
[libx264 @ 0x5555555e0800] Weighted P-Frames: Y:10.7% UV:10.7%
[libx264 @ 0x5555555e0800] ref P L0: 65.1% 10.1% 14.5%  4.1%  3.3%  2.5%  0.3%
[libx264 @ 0x5555555e0800] kb/s:1288.28
Exiting normally, received signal 2.
ffmpeg version 4.2.4-1ubuntu0.1 Copyright (c) 2000-2020 the FFmpeg developers
  built with gcc 9 (Ubuntu 9.3.0-10ubuntu2)
  configuration: --prefix=/usr --extra-version=1ubuntu0.1 --toolchain=hardened --libdir=/usr/lib/x86_64-linux-gnu --incdir=/usr/include/x86_64-linux-gnu --arch=amd64 --enable-gpl --disable-stripping --enable-avresample --disable-filter=resample --enable-avisynth --enable-gnutls --enable-ladspa --enable-libaom --enable-libass --enable-libbluray --enable-libbs2b --enable-libcaca --enable-libcdio --enable-libcodec2 --enable-libflite --enable-libfontconfig --enable-libfreetype --enable-libfribidi --enable-libgme --enable-libgsm --enable-libjack --enable-libmp3lame --enable-libmysofa --enable-libopenjpeg --enable-libopenmpt --enable-libopus --enable-libpulse --enable-librsvg --enable-librubberband --enable-libshine --enable-libsnappy --enable-libsoxr --enable-libspeex --enable-libssh --enable-libtheora --enable-libtwolame --enable-libvidstab --enable-libvorbis --enable-libvpx --enable-libwavpack --enable-libwebp --enable-libx265 --enable-libxml2 --enable-libxvid --enable-libzmq --enable-libzvbi --enable-lv2 --enable-omx --enable-openal --enable-opencl --enable-opengl --enable-sdl2 --enable-libdc1394 --enable-libdrm --enable-libiec61883 --enable-nvenc --enable-chromaprint --enable-frei0r --enable-libx264 --enable-shared
  WARNING: library configuration mismatch
  avcodec     configuration: --prefix=/usr --extra-version=1ubuntu0.1 --toolchain=hardened --libdir=/usr/lib/x86_64-linux-gnu --incdir=/usr/include/x86_64-linux-gnu --arch=amd64 --enable-gpl --disable-stripping --enable-avresample --disable-filter=resample --enable-avisynth --enable-gnutls --enable-ladspa --enable-libaom --enable-libass --enable-libbluray --enable-libbs2b --enable-libcaca --enable-libcdio --enable-libcodec2 --enable-libflite --enable-libfontconfig --enable-libfreetype --enable-libfribidi --enable-libgme --enable-libgsm --enable-libjack --enable-libmp3lame --enable-libmysofa --enable-libopenjpeg --enable-libopenmpt --enable-libopus --enable-libpulse --enable-librsvg --enable-librubberband --enable-libshine --enable-libsnappy --enable-libsoxr --enable-libspeex --enable-libssh --enable-libtheora --enable-libtwolame --enable-libvidstab --enable-libvorbis --enable-libvpx --enable-libwavpack --enable-libwebp --enable-libx265 --enable-libxml2 --enable-libxvid --enable-libzmq --enable-libzvbi --enable-lv2 --enable-omx --enable-openal --enable-opencl --enable-opengl --enable-sdl2 --enable-libdc1394 --enable-libdrm --enable-libiec61883 --enable-nvenc --enable-chromaprint --enable-frei0r --enable-libx264 --enable-shared --enable-version3 --disable-doc --disable-programs --enable-libaribb24 --enable-liblensfun --enable-libopencore_amrnb --enable-libopencore_amrwb --enable-libtesseract --enable-libvo_amrwbenc
  libavutil      56. 31.100 / 56. 31.100
  libavcodec     58. 54.100 / 58. 54.100
  libavformat    58. 29.100 / 58. 29.100
  libavdevice    58.  8.100 / 58.  8.100
  libavfilter     7. 57.100 /  7. 57.100
  libavresample   4.  0.  0 /  4.  0.  0
  libswscale      5.  5.100 /  5.  5.100
  libswresample   3.  5.100 /  3.  5.100
  libpostproc    55.  5.100 / 55.  5.100
Input #0, image2pipe, from 'pipe:':
  Duration: N/A, bitrate: N/A
    Stream #0:0: Video: ppm, rgb24, 800x350, 25 fps, 25 tbr, 25 tbn, 25 tbc
Stream mapping:
  Stream #0:0 -> #0:0 (ppm (native) -> h264 (libx264))
[libx264 @ 0x5555555e0800] using cpu capabilities: MMX2 SSE2Fast SSSE3 SSE4.2 AVX FMA3 BMI2 AVX2 AVX512
[libx264 @ 0x5555555e0800] profile High, level 3.0
Output #0, mpegts, to 'xmovie.mp4':
  Metadata:
    encoder         : Lavf58.29.100
    Stream #0:0: Video: h264 (libx264), yuv420p, 800x350, q=-1--1, 25 fps, 90k tbn, 25 tbc
    Metadata:
      encoder         : Lavc58.54.100 libx264
    Side data:
      cpb: bitrate max/min/avg: 0/0/0 buffer size: 0 vbv_delay: -1
frame=    8 fps=0.4 q=17.0 size=      40kB time=00:00:00.28 bitrate=1181.7kbits/s speed=0.0138x    frame=    9 fps=0.2 q=17.0 size=      45kB time=00:00:00.32 bitrate=1160.9kbits/s speed=0.0079x    frame=   10 fps=0.2 q=17.0 size=      52kB time=00:00:00.36 bitrate=1178.1kbits/s speed=0.00608x    frame=   11 fps=0.1 q=17.0 size=      58kB time=00:00:00.40 bitrate=1191.9kbits/s speed=0.00512x    frame=   12 fps=0.1 q=17.0 size=      65kB time=00:00:00.44 bitrate=1210.0kbits/s speed=0.00455x    frame=   13 fps=0.1 q=17.0 size=      71kB time=00:00:00.48 bitrate=1218.8kbits/s speed=0.00425x    frame=   14 fps=0.1 q=17.0 size=      76kB time=00:00:00.52 bitrate=1200.3kbits/s speed=0.00406x    frame=   15 fps=0.1 q=16.0 size=      81kB time=00:00:00.56 bitrate=1189.7kbits/s speed=0.0039x    frame=   16 fps=0.1 q=17.0 size=      88kB time=00:00:00.60 bitrate=1195.7kbits/s speed=0.00367x    frame=   17 fps=0.1 q=17.0 size=      91kB time=00:00:00.64 bitrate=1170.3kbits/s speed=0.00353x    frame=   18 fps=0.1 q=17.0 size=      96kB time=00:00:00.68 bitrate=1158.9kbits/s speed=0.00341x    frame=   19 fps=0.1 q=17.0 size=     101kB time=00:00:00.72 bitrate=1144.7kbits/s speed=0.00328x    frame=   20 fps=0.1 q=17.0 size=     106kB time=00:00:00.76 bitrate=1141.8kbits/s speed=0.00317x    frame=   21 fps=0.1 q=16.0 size=     111kB time=00:00:00.80 bitrate=1137.4kbits/s speed=0.0031x    frame=   22 fps=0.1 q=16.0 size=     115kB time=00:00:00.84 bitrate=1122.6kbits/s speed=0.00301x    frame=   23 fps=0.1 q=17.0 size=     120kB time=00:00:00.88 bitrate=1117.7kbits/s speed=0.00294x    frame=   24 fps=0.1 q=17.0 size=     125kB time=00:00:00.92 bitrate=1113.3kbits/s speed=0.00289x    frame=   25 fps=0.1 q=17.0 size=     129kB time=00:00:00.96 bitrate=1101.4kbits/s speed=0.00286x    frame=   26 fps=0.1 q=17.0 size=     134kB time=00:00:01.00 bitrate=1094.9kbits/s speed=0.00284x    frame=   27 fps=0.1 q=17.0 size=     140kB time=00:00:01.04 bitrate=1099.1kbits/s speed=0.00282x    frame=   28 fps=0.1 q=17.0 size=     145kB time=00:00:01.08 bitrate=1098.7kbits/s speed=0.0028x    frame=   29 fps=0.1 q=17.0 size=     151kB time=00:00:01.12 bitrate=1101.1kbits/s speed=0.00279x    frame=   30 fps=0.1 q=18.0 size=     158kB time=00:00:01.16 bitrate=1112.4kbits/s speed=0.00276x    frame=   31 fps=0.1 q=18.0 size=     164kB time=00:00:01.20 bitrate=1123.0kbits/s speed=0.00274x    frame=   32 fps=0.1 q=17.0 size=     170kB time=00:00:01.24 bitrate=1124.4kbits/s speed=0.00272x    frame=   33 fps=0.1 q=17.0 size=     178kB time=00:00:01.28 bitrate=1137.4kbits/s speed=0.00269x    frame=   34 fps=0.1 q=17.0 size=     182kB time=00:00:01.32 bitrate=1132.5kbits/s speed=0.00267x    frame=   35 fps=0.1 q=17.0 size=     187kB time=00:00:01.36 bitrate=1128.0kbits/s speed=0.00265x    frame=   36 fps=0.1 q=17.0 size=     191kB time=00:00:01.40 bitrate=1119.4kbits/s speed=0.00264x    frame=   37 fps=0.1 q=17.0 size=     198kB time=00:00:01.44 bitrate=1125.9kbits/s speed=0.00264x    frame=   38 fps=0.1 q=17.0 size=     205kB time=00:00:01.48 bitrate=1136.1kbits/s speed=0.00264x    frame=   39 fps=0.1 q=17.0 size=     211kB time=00:00:01.52 bitrate=1137.9kbits/s speed=0.00264x    frame=   40 fps=0.1 q=17.0 size=     215kB time=00:00:01.56 bitrate=1130.9kbits/s speed=0.00263x    frame=   41 fps=0.1 q=17.0 size=     221kB time=00:00:01.60 bitrate=1132.7kbits/s speed=0.00263x    frame=   42 fps=0.1 q=17.0 size=     226kB time=00:00:01.64 bitrate=1127.1kbits/s speed=0.00262x    frame=   43 fps=0.1 q=17.0 size=     231kB time=00:00:01.68 bitrate=1124.4kbits/s speed=0.00261x    frame=   44 fps=0.1 q=17.0 size=     236kB time=00:00:01.72 bitrate=1125.4kbits/s speed=0.0026x    frame=   45 fps=0.1 q=17.0 size=     243kB time=00:00:01.76 bitrate=1130.6kbits/s speed=0.0026x    frame=   46 fps=0.1 q=17.0 size=     249kB time=00:00:01.80 bitrate=1133.0kbits/s speed=0.00259x    frame=   47 fps=0.1 q=17.0 size=     254kB time=00:00:01.84 bitrate=1130.4kbits/s speed=0.00257x    frame=   48 fps=0.1 q=17.0 size=     256kB time=00:00:01.88 bitrate=1115.5kbits/s speed=0.00256x    frame=   49 fps=0.1 q=17.0 size=     256kB time=00:00:01.92 bitrate=1092.3kbits/s speed=0.00256x    frame=   50 fps=0.1 q=17.0 size=     256kB time=00:00:01.96 bitrate=1070.0kbits/s speed=0.00256x    frame=   51 fps=0.1 q=17.0 size=     256kB time=00:00:02.00 bitrate=1048.6kbits/s speed=0.00255x    frame=   52 fps=0.1 q=16.0 size=     256kB time=00:00:02.04 bitrate=1028.0kbits/s speed=0.00253x    frame=   53 fps=0.1 q=16.0 size=     256kB time=00:00:02.08 bitrate=1008.2kbits/s speed=0.00252x    frame=   54 fps=0.1 q=17.0 size=     256kB time=00:00:02.12 bitrate= 989.2kbits/s speed=0.0025x    frame=   55 fps=0.1 q=17.0 size=     256kB time=00:00:02.16 bitrate= 970.9kbits/s speed=0.00249x    frame=   56 fps=0.1 q=17.0 size=     256kB time=00:00:02.20 bitrate= 953.2kbits/s speed=0.00248x    frame=   57 fps=0.1 q=17.0 size=     256kB time=00:00:02.24 bitrate= 936.2kbits/s speed=0.00248x    frame=   58 fps=0.1 q=17.0 size=     256kB time=00:00:02.28 bitrate= 919.8kbits/s speed=0.00247x    Error while decoding stream #0:0: Invalid data found when processing input
frame=   58 fps=0.1 q=17.0 size=     256kB time=00:00:02.28 bitrate= 919.8kbits/s speed=0.00242x    frame=   58 fps=0.1 q=17.0 Lsize=     304kB time=00:00:02.28 bitrate=1093.7kbits/s speed=0.0024x    
video:276kB audio:0kB subtitle:0kB other streams:0kB global headers:0kB muxing overhead: 10.454214%
[libx264 @ 0x5555555e0800] frame I:2     Avg QP:13.56  size:  4308
[libx264 @ 0x5555555e0800] frame P:56    Avg QP:10.63  size:  4885
[libx264 @ 0x5555555e0800] mb I  I16..4: 45.1% 46.0%  8.9%
[libx264 @ 0x5555555e0800] mb P  I16..4: 33.0%  9.8%  2.3%  P16..4: 13.0%  8.2%  3.4%  0.0%  0.0%    skip:30.3%
[libx264 @ 0x5555555e0800] 8x8 transform intra:23.4% inter:63.4%
[libx264 @ 0x5555555e0800] coded y,uvDC,uvAC intra: 11.4% 28.6% 21.5% inter: 20.7% 27.0% 11.4%
[libx264 @ 0x5555555e0800] i16 v,h,dc,p: 47% 28% 23%  2%
[libx264 @ 0x5555555e0800] i8 v,h,dc,ddl,ddr,vr,hd,vl,hu: 14% 26% 40%  2%  3%  2%  5%  2%  6%
[libx264 @ 0x5555555e0800] i4 v,h,dc,ddl,ddr,vr,hd,vl,hu:  7% 40% 23%  2%  6%  4%  9%  2%  6%
[libx264 @ 0x5555555e0800] i8c dc,h,v,p: 59% 33%  5%  2%
[libx264 @ 0x5555555e0800] Weighted P-Frames: Y:32.1% UV:28.6%
[libx264 @ 0x5555555e0800] ref P L0: 47.0% 14.9% 21.0%  6.7%  5.1%  4.3%  1.0%
[libx264 @ 0x5555555e0800] kb/s:973.11
Exiting normally, received signal 2.
ffmpeg version 4.2.4-1ubuntu0.1 Copyright (c) 2000-2020 the FFmpeg developers
  built with gcc 9 (Ubuntu 9.3.0-10ubuntu2)
  configuration: --prefix=/usr --extra-version=1ubuntu0.1 --toolchain=hardened --libdir=/usr/lib/x86_64-linux-gnu --incdir=/usr/include/x86_64-linux-gnu --arch=amd64 --enable-gpl --disable-stripping --enable-avresample --disable-filter=resample --enable-avisynth --enable-gnutls --enable-ladspa --enable-libaom --enable-libass --enable-libbluray --enable-libbs2b --enable-libcaca --enable-libcdio --enable-libcodec2 --enable-libflite --enable-libfontconfig --enable-libfreetype --enable-libfribidi --enable-libgme --enable-libgsm --enable-libjack --enable-libmp3lame --enable-libmysofa --enable-libopenjpeg --enable-libopenmpt --enable-libopus --enable-libpulse --enable-librsvg --enable-librubberband --enable-libshine --enable-libsnappy --enable-libsoxr --enable-libspeex --enable-libssh --enable-libtheora --enable-libtwolame --enable-libvidstab --enable-libvorbis --enable-libvpx --enable-libwavpack --enable-libwebp --enable-libx265 --enable-libxml2 --enable-libxvid --enable-libzmq --enable-libzvbi --enable-lv2 --enable-omx --enable-openal --enable-opencl --enable-opengl --enable-sdl2 --enable-libdc1394 --enable-libdrm --enable-libiec61883 --enable-nvenc --enable-chromaprint --enable-frei0r --enable-libx264 --enable-shared
  WARNING: library configuration mismatch
  avcodec     configuration: --prefix=/usr --extra-version=1ubuntu0.1 --toolchain=hardened --libdir=/usr/lib/x86_64-linux-gnu --incdir=/usr/include/x86_64-linux-gnu --arch=amd64 --enable-gpl --disable-stripping --enable-avresample --disable-filter=resample --enable-avisynth --enable-gnutls --enable-ladspa --enable-libaom --enable-libass --enable-libbluray --enable-libbs2b --enable-libcaca --enable-libcdio --enable-libcodec2 --enable-libflite --enable-libfontconfig --enable-libfreetype --enable-libfribidi --enable-libgme --enable-libgsm --enable-libjack --enable-libmp3lame --enable-libmysofa --enable-libopenjpeg --enable-libopenmpt --enable-libopus --enable-libpulse --enable-librsvg --enable-librubberband --enable-libshine --enable-libsnappy --enable-libsoxr --enable-libspeex --enable-libssh --enable-libtheora --enable-libtwolame --enable-libvidstab --enable-libvorbis --enable-libvpx --enable-libwavpack --enable-libwebp --enable-libx265 --enable-libxml2 --enable-libxvid --enable-libzmq --enable-libzvbi --enable-lv2 --enable-omx --enable-openal --enable-opencl --enable-opengl --enable-sdl2 --enable-libdc1394 --enable-libdrm --enable-libiec61883 --enable-nvenc --enable-chromaprint --enable-frei0r --enable-libx264 --enable-shared --enable-version3 --disable-doc --disable-programs --enable-libaribb24 --enable-liblensfun --enable-libopencore_amrnb --enable-libopencore_amrwb --enable-libtesseract --enable-libvo_amrwbenc
  libavutil      56. 31.100 / 56. 31.100
  libavcodec     58. 54.100 / 58. 54.100
  libavformat    58. 29.100 / 58. 29.100
  libavdevice    58.  8.100 / 58.  8.100
  libavfilter     7. 57.100 /  7. 57.100
  libavresample   4.  0.  0 /  4.  0.  0
  libswscale      5.  5.100 /  5.  5.100
  libswresample   3.  5.100 /  3.  5.100
  libpostproc    55.  5.100 / 55.  5.100
Input #0, image2pipe, from 'pipe:':
  Duration: N/A, bitrate: N/A
    Stream #0:0: Video: ppm, rgb24, 800x350, 25 fps, 25 tbr, 25 tbn, 25 tbc
Stream mapping:
  Stream #0:0 -> #0:0 (ppm (native) -> h264 (libx264))
[libx264 @ 0x5555555e0800] using cpu capabilities: MMX2 SSE2Fast SSSE3 SSE4.2 AVX FMA3 BMI2 AVX2 AVX512
[libx264 @ 0x5555555e0800] profile High, level 3.0
Output #0, mpegts, to 'ymovie.mp4':
  Metadata:
    encoder         : Lavf58.29.100
    Stream #0:0: Video: h264 (libx264), yuv420p, 800x350, q=-1--1, 25 fps, 90k tbn, 25 tbc
    Metadata:
      encoder         : Lavc58.54.100 libx264
    Side data:
      cpb: bitrate max/min/avg: 0/0/0 buffer size: 0 vbv_delay: -1
frame=    8 fps=0.4 q=17.0 size=      41kB time=00:00:00.28 bitrate=1203.2kbits/s speed=0.0138x    frame=    9 fps=0.2 q=18.0 size=      47kB time=00:00:00.32 bitrate=1212.6kbits/s speed=0.0079x    frame=   10 fps=0.2 q=18.0 size=      52kB time=00:00:00.36 bitrate=1182.3kbits/s speed=0.00609x    frame=   11 fps=0.1 q=18.0 size=      59kB time=00:00:00.40 bitrate=1203.2kbits/s speed=0.00513x    frame=   12 fps=0.1 q=17.0 size=      63kB time=00:00:00.44 bitrate=1179.2kbits/s speed=0.00455x    frame=   13 fps=0.1 q=17.0 size=      70kB time=00:00:00.48 bitrate=1187.5kbits/s speed=0.00426x    frame=   14 fps=0.1 q=17.0 size=      75kB time=00:00:00.52 bitrate=1177.1kbits/s speed=0.00407x    frame=   15 fps=0.1 q=17.0 size=      81kB time=00:00:00.56 bitrate=1181.7kbits/s speed=0.00391x    frame=   16 fps=0.1 q=16.0 size=      85kB time=00:00:00.60 bitrate=1155.6kbits/s speed=0.00367x    frame=   17 fps=0.1 q=16.0 size=      89kB time=00:00:00.64 bitrate=1137.4kbits/s speed=0.00353x    frame=   18 fps=0.1 q=17.0 size=      93kB time=00:00:00.68 bitrate=1121.3kbits/s speed=0.00341x    frame=   19 fps=0.1 q=17.0 size=      97kB time=00:00:00.72 bitrate=1100.8kbits/s speed=0.00328x    frame=   20 fps=0.1 q=16.0 size=     101kB time=00:00:00.76 bitrate=1084.4kbits/s speed=0.00317x    frame=   21 fps=0.1 q=17.0 size=     107kB time=00:00:00.80 bitrate=1099.8kbits/s speed=0.0031x    frame=   22 fps=0.1 q=17.0 size=     113kB time=00:00:00.84 bitrate=1097.5kbits/s speed=0.00301x    frame=   23 fps=0.1 q=17.0 size=     117kB time=00:00:00.88 bitrate=1092.1kbits/s speed=0.00294x    frame=   24 fps=0.1 q=18.0 size=     124kB time=00:00:00.92 bitrate=1101.8kbits/s speed=0.00289x    frame=   25 fps=0.1 q=18.0 size=     128kB time=00:00:00.96 bitrate=1092.0kbits/s speed=0.00286x    frame=   26 fps=0.1 q=17.0 size=     133kB time=00:00:01.00 bitrate=1090.4kbits/s speed=0.00284x    frame=   27 fps=0.1 q=18.0 size=     139kB time=00:00:01.04 bitrate=1093.3kbits/s speed=0.00282x    frame=   28 fps=0.1 q=18.0 size=     144kB time=00:00:01.08 bitrate=1093.2kbits/s speed=0.0028x    frame=   29 fps=0.1 q=18.0 size=     150kB time=00:00:01.12 bitrate=1097.1kbits/s speed=0.00279x    frame=   30 fps=0.1 q=18.0 size=     156kB time=00:00:01.16 bitrate=1100.8kbits/s speed=0.00276x    frame=   31 fps=0.1 q=18.0 size=     161kB time=00:00:01.20 bitrate=1100.4kbits/s speed=0.00274x    frame=   32 fps=0.1 q=18.0 size=     167kB time=00:00:01.24 bitrate=1100.1kbits/s speed=0.00272x    frame=   33 fps=0.1 q=18.0 size=     172kB time=00:00:01.28 bitrate=1101.0kbits/s speed=0.00269x    frame=   34 fps=0.1 q=18.0 size=     176kB time=00:00:01.32 bitrate=1092.7kbits/s speed=0.00267x    frame=   35 fps=0.1 q=17.0 size=     181kB time=00:00:01.36 bitrate=1090.4kbits/s speed=0.00265x    frame=   36 fps=0.1 q=18.0 size=     187kB time=00:00:01.40 bitrate=1091.5kbits/s speed=0.00264x    frame=   37 fps=0.1 q=18.0 size=     193kB time=00:00:01.44 bitrate=1099.8kbits/s speed=0.00264x    frame=   38 fps=0.1 q=19.0 size=     200kB time=00:00:01.48 bitrate=1104.6kbits/s speed=0.00264x    frame=   39 fps=0.1 q=19.0 size=     205kB time=00:00:01.52 bitrate=1104.2kbits/s speed=0.00264x    frame=   40 fps=0.1 q=19.0 size=     210kB time=00:00:01.56 bitrate=1102.0kbits/s speed=0.00263x    frame=   41 fps=0.1 q=18.0 size=     214kB time=00:00:01.60 bitrate=1097.9kbits/s speed=0.00263x    frame=   42 fps=0.1 q=18.0 size=     219kB time=00:00:01.64 bitrate=1094.1kbits/s speed=0.00262x    frame=   43 fps=0.1 q=17.0 size=     224kB time=00:00:01.68 bitrate=1094.0kbits/s speed=0.00261x    frame=   44 fps=0.1 q=17.0 size=     230kB time=00:00:01.72 bitrate=1096.5kbits/s speed=0.0026x    frame=   45 fps=0.1 q=17.0 size=     236kB time=00:00:01.76 bitrate=1097.2kbits/s speed=0.0026x    frame=   46 fps=0.1 q=17.0 size=     240kB time=00:00:01.80 bitrate=1092.9kbits/s speed=0.00259x    frame=   47 fps=0.1 q=17.0 size=     245kB time=00:00:01.84 bitrate=1091.2kbits/s speed=0.00257x    frame=   48 fps=0.1 q=17.0 size=     250kB time=00:00:01.88 bitrate=1090.4kbits/s speed=0.00256x    frame=   49 fps=0.1 q=17.0 size=     255kB time=00:00:01.92 bitrate=1088.0kbits/s speed=0.00256x    frame=   50 fps=0.1 q=17.0 size=     256kB time=00:00:01.96 bitrate=1070.0kbits/s speed=0.00256x    frame=   51 fps=0.1 q=17.0 size=     256kB time=00:00:02.00 bitrate=1048.6kbits/s speed=0.00255x    frame=   52 fps=0.1 q=16.0 size=     256kB time=00:00:02.04 bitrate=1028.0kbits/s speed=0.00253x    frame=   53 fps=0.1 q=17.0 size=     256kB time=00:00:02.08 bitrate=1008.2kbits/s speed=0.00252x    frame=   54 fps=0.1 q=17.0 size=     256kB time=00:00:02.12 bitrate= 989.2kbits/s speed=0.0025x    frame=   55 fps=0.1 q=17.0 size=     256kB time=00:00:02.16 bitrate= 970.9kbits/s speed=0.00249x    frame=   56 fps=0.1 q=17.0 size=     256kB time=00:00:02.20 bitrate= 953.2kbits/s speed=0.00248x    frame=   57 fps=0.1 q=17.0 size=     256kB time=00:00:02.24 bitrate= 936.2kbits/s speed=0.00248x    frame=   58 fps=0.1 q=17.0 size=     256kB time=00:00:02.28 bitrate= 919.8kbits/s speed=0.00247x    Error while decoding stream #0:0: Invalid data found when processing input
frame=   58 fps=0.1 q=17.0 size=     256kB time=00:00:02.28 bitrate= 919.8kbits/s speed=0.00242x    frame=   58 fps=0.1 q=17.0 Lsize=     299kB time=00:00:02.28 bitrate=1073.9kbits/s speed=0.00241x    
video:271kB audio:0kB subtitle:0kB other streams:0kB global headers:0kB muxing overhead: 10.238512%
[libx264 @ 0x5555555e0800] frame I:2     Avg QP:14.06  size:  4654
[libx264 @ 0x5555555e0800] frame P:56    Avg QP:10.38  size:  4792
[libx264 @ 0x5555555e0800] mb I  I16..4: 40.4% 50.4%  9.2%
[libx264 @ 0x5555555e0800] mb P  I16..4: 39.1%  8.9%  2.2%  P16..4: 14.4%  7.0%  3.9%  0.0%  0.0%    skip:24.4%
[libx264 @ 0x5555555e0800] 8x8 transform intra:19.9% inter:64.9%
[libx264 @ 0x5555555e0800] coded y,uvDC,uvAC intra: 7.9% 26.4% 20.5% inter: 22.3% 31.9% 11.8%
[libx264 @ 0x5555555e0800] i16 v,h,dc,p: 50% 25% 24%  1%
[libx264 @ 0x5555555e0800] i8 v,h,dc,ddl,ddr,vr,hd,vl,hu: 16% 13% 46%  3%  4%  3%  5%  3%  6%
[libx264 @ 0x5555555e0800] i4 v,h,dc,ddl,ddr,vr,hd,vl,hu: 10% 24% 33%  4%  8%  5%  8%  3%  5%
[libx264 @ 0x5555555e0800] i8c dc,h,v,p: 61% 30%  6%  3%
[libx264 @ 0x5555555e0800] Weighted P-Frames: Y:19.6% UV:19.6%
[libx264 @ 0x5555555e0800] ref P L0: 26.2%  7.1% 29.7% 13.9% 15.2%  7.1%  0.7%
[libx264 @ 0x5555555e0800] kb/s:957.37
Exiting normally, received signal 2.
ffmpeg version 4.2.4-1ubuntu0.1 Copyright (c) 2000-2020 the FFmpeg developers
  built with gcc 9 (Ubuntu 9.3.0-10ubuntu2)
  configuration: --prefix=/usr --extra-version=1ubuntu0.1 --toolchain=hardened --libdir=/usr/lib/x86_64-linux-gnu --incdir=/usr/include/x86_64-linux-gnu --arch=amd64 --enable-gpl --disable-stripping --enable-avresample --disable-filter=resample --enable-avisynth --enable-gnutls --enable-ladspa --enable-libaom --enable-libass --enable-libbluray --enable-libbs2b --enable-libcaca --enable-libcdio --enable-libcodec2 --enable-libflite --enable-libfontconfig --enable-libfreetype --enable-libfribidi --enable-libgme --enable-libgsm --enable-libjack --enable-libmp3lame --enable-libmysofa --enable-libopenjpeg --enable-libopenmpt --enable-libopus --enable-libpulse --enable-librsvg --enable-librubberband --enable-libshine --enable-libsnappy --enable-libsoxr --enable-libspeex --enable-libssh --enable-libtheora --enable-libtwolame --enable-libvidstab --enable-libvorbis --enable-libvpx --enable-libwavpack --enable-libwebp --enable-libx265 --enable-libxml2 --enable-libxvid --enable-libzmq --enable-libzvbi --enable-lv2 --enable-omx --enable-openal --enable-opencl --enable-opengl --enable-sdl2 --enable-libdc1394 --enable-libdrm --enable-libiec61883 --enable-nvenc --enable-chromaprint --enable-frei0r --enable-libx264 --enable-shared
  WARNING: library configuration mismatch
  avcodec     configuration: --prefix=/usr --extra-version=1ubuntu0.1 --toolchain=hardened --libdir=/usr/lib/x86_64-linux-gnu --incdir=/usr/include/x86_64-linux-gnu --arch=amd64 --enable-gpl --disable-stripping --enable-avresample --disable-filter=resample --enable-avisynth --enable-gnutls --enable-ladspa --enable-libaom --enable-libass --enable-libbluray --enable-libbs2b --enable-libcaca --enable-libcdio --enable-libcodec2 --enable-libflite --enable-libfontconfig --enable-libfreetype --enable-libfribidi --enable-libgme --enable-libgsm --enable-libjack --enable-libmp3lame --enable-libmysofa --enable-libopenjpeg --enable-libopenmpt --enable-libopus --enable-libpulse --enable-librsvg --enable-librubberband --enable-libshine --enable-libsnappy --enable-libsoxr --enable-libspeex --enable-libssh --enable-libtheora --enable-libtwolame --enable-libvidstab --enable-libvorbis --enable-libvpx --enable-libwavpack --enable-libwebp --enable-libx265 --enable-libxml2 --enable-libxvid --enable-libzmq --enable-libzvbi --enable-lv2 --enable-omx --enable-openal --enable-opencl --enable-opengl --enable-sdl2 --enable-libdc1394 --enable-libdrm --enable-libiec61883 --enable-nvenc --enable-chromaprint --enable-frei0r --enable-libx264 --enable-shared --enable-version3 --disable-doc --disable-programs --enable-libaribb24 --enable-liblensfun --enable-libopencore_amrnb --enable-libopencore_amrwb --enable-libtesseract --enable-libvo_amrwbenc
  libavutil      56. 31.100 / 56. 31.100
  libavcodec     58. 54.100 / 58. 54.100
  libavformat    58. 29.100 / 58. 29.100
  libavdevice    58.  8.100 / 58.  8.100
  libavfilter     7. 57.100 /  7. 57.100
  libavresample   4.  0.  0 /  4.  0.  0
  libswscale      5.  5.100 /  5.  5.100
  libswresample   3.  5.100 /  3.  5.100
  libpostproc    55.  5.100 / 55.  5.100
Input #0, image2pipe, from 'pipe:':
  Duration: N/A, bitrate: N/A
    Stream #0:0: Video: ppm, rgb24, 800x350, 25 fps, 25 tbr, 25 tbn, 25 tbc
Stream mapping:
  Stream #0:0 -> #0:0 (ppm (native) -> h264 (libx264))
[libx264 @ 0x5555555e0800] using cpu capabilities: MMX2 SSE2Fast SSSE3 SSE4.2 AVX FMA3 BMI2 AVX2 AVX512
[libx264 @ 0x5555555e0800] profile High, level 3.0
Output #0, mpegts, to 'tracemovie.mp4':
  Metadata:
    encoder         : Lavf58.29.100
    Stream #0:0: Video: h264 (libx264), yuv420p, 800x350, q=-1--1, 25 fps, 90k tbn, 25 tbc
    Metadata:
      encoder         : Lavc58.54.100 libx264
    Side data:
      cpb: bitrate max/min/avg: 0/0/0 buffer size: 0 vbv_delay: -1
frame=    8 fps=0.4 q=15.0 size=      23kB time=00:00:00.28 bitrate= 666.0kbits/s speed=0.0139x    frame=    9 fps=0.2 q=15.0 size=      25kB time=00:00:00.32 bitrate= 643.9kbits/s speed=0.00792x    frame=   10 fps=0.2 q=15.0 size=      27kB time=00:00:00.36 bitrate= 618.3kbits/s speed=0.0061x    frame=   11 fps=0.1 q=15.0 size=      29kB time=00:00:00.40 bitrate= 597.8kbits/s speed=0.00513x    frame=   12 fps=0.1 q=15.0 size=      31kB time=00:00:00.44 bitrate= 577.7kbits/s speed=0.00456x    frame=   13 fps=0.1 q=14.0 size=      33kB time=00:00:00.48 bitrate= 567.1kbits/s speed=0.00427x    frame=   14 fps=0.1 q=14.0 size=      35kB time=00:00:00.52 bitrate= 549.5kbits/s speed=0.00408x    frame=   15 fps=0.1 q=14.0 size=      37kB time=00:00:00.56 bitrate= 534.4kbits/s speed=0.00391x    frame=   16 fps=0.1 q=14.0 size=      38kB time=00:00:00.60 bitrate= 521.4kbits/s speed=0.00367x    frame=   17 fps=0.1 q=14.0 size=      40kB time=00:00:00.64 bitrate= 517.0kbits/s speed=0.00353x    frame=   18 fps=0.1 q=15.0 size=      43kB time=00:00:00.68 bitrate= 517.5kbits/s speed=0.00341x    frame=   19 fps=0.1 q=16.0 size=      48kB time=00:00:00.72 bitrate= 541.0kbits/s speed=0.00328x    frame=   20 fps=0.1 q=17.0 size=      53kB time=00:00:00.76 bitrate= 569.9kbits/s speed=0.00317x    frame=   21 fps=0.1 q=17.0 size=      59kB time=00:00:00.80 bitrate= 603.5kbits/s speed=0.0031x    frame=   22 fps=0.1 q=18.0 size=      67kB time=00:00:00.84 bitrate= 649.9kbits/s speed=0.00302x    frame=   23 fps=0.1 q=18.0 size=      74kB time=00:00:00.88 bitrate= 688.8kbits/s speed=0.00294x    frame=   24 fps=0.1 q=19.0 size=      84kB time=00:00:00.92 bitrate= 747.1kbits/s speed=0.00289x    frame=   25 fps=0.1 q=19.0 size=      94kB time=00:00:00.96 bitrate= 803.7kbits/s speed=0.00286x    frame=   26 fps=0.1 q=19.0 size=     104kB time=00:00:01.00 bitrate= 848.2kbits/s speed=0.00284x    frame=   27 fps=0.1 q=19.0 size=     114kB time=00:00:01.04 bitrate= 900.9kbits/s speed=0.00282x    frame=   28 fps=0.1 q=19.0 size=     128kB time=00:00:01.08 bitrate= 970.6kbits/s speed=0.00281x    frame=   29 fps=0.1 q=20.0 size=     147kB time=00:00:01.12 bitrate=1071.6kbits/s speed=0.00279x    frame=   30 fps=0.1 q=21.0 size=     167kB time=00:00:01.16 bitrate=1176.0kbits/s speed=0.00276x    frame=   31 fps=0.1 q=22.0 size=     188kB time=00:00:01.20 bitrate=1280.9kbits/s speed=0.00274x    frame=   32 fps=0.1 q=22.0 size=     208kB time=00:00:01.24 bitrate=1374.2kbits/s speed=0.00272x    frame=   33 fps=0.1 q=22.0 size=     230kB time=00:00:01.28 bitrate=1473.4kbits/s speed=0.00269x    frame=   34 fps=0.1 q=22.0 size=     255kB time=00:00:01.32 bitrate=1581.5kbits/s speed=0.00267x    frame=   35 fps=0.1 q=23.0 size=     256kB time=00:00:01.36 bitrate=1542.0kbits/s speed=0.00265x    frame=   36 fps=0.1 q=23.0 size=     256kB time=00:00:01.40 bitrate=1498.0kbits/s speed=0.00264x    frame=   37 fps=0.1 q=23.0 size=     256kB time=00:00:01.44 bitrate=1456.3kbits/s speed=0.00264x    frame=   38 fps=0.1 q=23.0 size=     256kB time=00:00:01.48 bitrate=1417.0kbits/s speed=0.00264x    frame=   39 fps=0.1 q=23.0 size=     256kB time=00:00:01.52 bitrate=1379.7kbits/s speed=0.00264x    frame=   40 fps=0.1 q=23.0 size=     256kB time=00:00:01.56 bitrate=1344.3kbits/s speed=0.00263x    frame=   41 fps=0.1 q=23.0 size=     256kB time=00:00:01.60 bitrate=1310.7kbits/s speed=0.00263x    frame=   42 fps=0.1 q=23.0 size=     256kB time=00:00:01.64 bitrate=1278.7kbits/s speed=0.00262x    frame=   43 fps=0.1 q=23.0 size=     256kB time=00:00:01.68 bitrate=1248.3kbits/s speed=0.00261x    frame=   44 fps=0.1 q=24.0 size=     512kB time=00:00:01.72 bitrate=2438.5kbits/s speed=0.00261x    frame=   45 fps=0.1 q=24.0 size=     512kB time=00:00:01.76 bitrate=2383.1kbits/s speed=0.0026x    frame=   46 fps=0.1 q=24.0 size=     512kB time=00:00:01.80 bitrate=2330.2kbits/s speed=0.00259x    frame=   47 fps=0.1 q=24.0 size=     512kB time=00:00:01.84 bitrate=2279.5kbits/s speed=0.00258x    frame=   48 fps=0.1 q=24.0 size=     512kB time=00:00:01.88 bitrate=2231.0kbits/s speed=0.00256x    frame=   49 fps=0.1 q=24.0 size=     512kB time=00:00:01.92 bitrate=2184.5kbits/s speed=0.00257x    frame=   50 fps=0.1 q=24.0 size=     512kB time=00:00:01.96 bitrate=2139.9kbits/s speed=0.00257x    frame=   51 fps=0.1 q=24.0 size=     768kB time=00:00:02.00 bitrate=3145.7kbits/s speed=0.00255x    frame=   52 fps=0.1 q=24.0 size=     768kB time=00:00:02.04 bitrate=3084.0kbits/s speed=0.00253x    frame=   53 fps=0.1 q=24.0 size=     768kB time=00:00:02.08 bitrate=3024.7kbits/s speed=0.00252x    frame=   54 fps=0.1 q=24.0 size=     768kB time=00:00:02.12 bitrate=2967.7kbits/s speed=0.0025x    frame=   55 fps=0.1 q=23.0 size=     768kB time=00:00:02.16 bitrate=2912.7kbits/s speed=0.00249x    frame=   56 fps=0.1 q=24.0 size=     768kB time=00:00:02.20 bitrate=2859.7kbits/s speed=0.00249x    frame=   57 fps=0.1 q=24.0 size=     768kB time=00:00:02.24 bitrate=2808.7kbits/s speed=0.00248x    frame=   58 fps=0.1 q=24.0 size=    1024kB time=00:00:02.28 bitrate=3679.2kbits/s speed=0.00247x    Error while decoding stream #0:0: Invalid data found when processing input
frame=   58 fps=0.1 q=24.0 size=    1024kB time=00:00:02.28 bitrate=3679.2kbits/s speed=0.00242x    frame=   58 fps=0.1 q=24.0 Lsize=    1032kB time=00:00:02.28 bitrate=3708.5kbits/s speed=0.00241x    
video:951kB audio:0kB subtitle:0kB other streams:0kB global headers:0kB muxing overhead: 8.585894%
[libx264 @ 0x5555555e0800] frame I:1     Avg QP: 4.95  size:  8805
[libx264 @ 0x5555555e0800] frame P:57    Avg QP:16.80  size: 16922
[libx264 @ 0x5555555e0800] mb I  I16..4: 86.9%  0.2% 12.9%
[libx264 @ 0x5555555e0800] mb P  I16..4:  1.5%  2.9%  4.0%  P16..4: 10.6%  8.3%  8.0%  0.0%  0.0%    skip:64.6%
[libx264 @ 0x5555555e0800] 8x8 transform intra:28.5% inter:16.1%
[libx264 @ 0x5555555e0800] coded y,uvDC,uvAC intra: 44.2% 60.3% 57.2% inter: 14.6% 18.1% 16.9%
[libx264 @ 0x5555555e0800] i16 v,h,dc,p: 42% 35% 23%  0%
[libx264 @ 0x5555555e0800] i8 v,h,dc,ddl,ddr,vr,hd,vl,hu:  9% 11% 52%  7%  7%  2%  3%  3%  6%
[libx264 @ 0x5555555e0800] i4 v,h,dc,ddl,ddr,vr,hd,vl,hu: 13% 25% 25%  6% 11%  4%  5%  4%  8%
[libx264 @ 0x5555555e0800] i8c dc,h,v,p: 52% 33% 10%  6%
[libx264 @ 0x5555555e0800] Weighted P-Frames: Y:0.0% UV:0.0%
[libx264 @ 0x5555555e0800] ref P L0: 50.4%  6.9% 16.4% 10.4%  8.2%  7.6%
[libx264 @ 0x5555555e0800] kb/s:3356.43
Exiting normally, received signal 2.
ffmpeg version 4.2.4-1ubuntu0.1 Copyright (c) 2000-2020 the FFmpeg developers
  built with gcc 9 (Ubuntu 9.3.0-10ubuntu2)
  configuration: --prefix=/usr --extra-version=1ubuntu0.1 --toolchain=hardened --libdir=/usr/lib/x86_64-linux-gnu --incdir=/usr/include/x86_64-linux-gnu --arch=amd64 --enable-gpl --disable-stripping --enable-avresample --disable-filter=resample --enable-avisynth --enable-gnutls --enable-ladspa --enable-libaom --enable-libass --enable-libbluray --enable-libbs2b --enable-libcaca --enable-libcdio --enable-libcodec2 --enable-libflite --enable-libfontconfig --enable-libfreetype --enable-libfribidi --enable-libgme --enable-libgsm --enable-libjack --enable-libmp3lame --enable-libmysofa --enable-libopenjpeg --enable-libopenmpt --enable-libopus --enable-libpulse --enable-librsvg --enable-librubberband --enable-libshine --enable-libsnappy --enable-libsoxr --enable-libspeex --enable-libssh --enable-libtheora --enable-libtwolame --enable-libvidstab --enable-libvorbis --enable-libvpx --enable-libwavpack --enable-libwebp --enable-libx265 --enable-libxml2 --enable-libxvid --enable-libzmq --enable-libzvbi --enable-lv2 --enable-omx --enable-openal --enable-opencl --enable-opengl --enable-sdl2 --enable-libdc1394 --enable-libdrm --enable-libiec61883 --enable-nvenc --enable-chromaprint --enable-frei0r --enable-libx264 --enable-shared
  WARNING: library configuration mismatch
  avcodec     configuration: --prefix=/usr --extra-version=1ubuntu0.1 --toolchain=hardened --libdir=/usr/lib/x86_64-linux-gnu --incdir=/usr/include/x86_64-linux-gnu --arch=amd64 --enable-gpl --disable-stripping --enable-avresample --disable-filter=resample --enable-avisynth --enable-gnutls --enable-ladspa --enable-libaom --enable-libass --enable-libbluray --enable-libbs2b --enable-libcaca --enable-libcdio --enable-libcodec2 --enable-libflite --enable-libfontconfig --enable-libfreetype --enable-libfribidi --enable-libgme --enable-libgsm --enable-libjack --enable-libmp3lame --enable-libmysofa --enable-libopenjpeg --enable-libopenmpt --enable-libopus --enable-libpulse --enable-librsvg --enable-librubberband --enable-libshine --enable-libsnappy --enable-libsoxr --enable-libspeex --enable-libssh --enable-libtheora --enable-libtwolame --enable-libvidstab --enable-libvorbis --enable-libvpx --enable-libwavpack --enable-libwebp --enable-libx265 --enable-libxml2 --enable-libxvid --enable-libzmq --enable-libzvbi --enable-lv2 --enable-omx --enable-openal --enable-opencl --enable-opengl --enable-sdl2 --enable-libdc1394 --enable-libdrm --enable-libiec61883 --enable-nvenc --enable-chromaprint --enable-frei0r --enable-libx264 --enable-shared --enable-version3 --disable-doc --disable-programs --enable-libaribb24 --enable-liblensfun --enable-libopencore_amrnb --enable-libopencore_amrwb --enable-libtesseract --enable-libvo_amrwbenc
  libavutil      56. 31.100 / 56. 31.100
  libavcodec     58. 54.100 / 58. 54.100
  libavformat    58. 29.100 / 58. 29.100
  libavdevice    58.  8.100 / 58.  8.100
  libavfilter     7. 57.100 /  7. 57.100
  libavresample   4.  0.  0 /  4.  0.  0
  libswscale      5.  5.100 /  5.  5.100
  libswresample   3.  5.100 /  3.  5.100
  libpostproc    55.  5.100 / 55.  5.100
Input #0, image2pipe, from 'pipe:':
  Duration: N/A, bitrate: N/A
    Stream #0:0: Video: ppm, rgb24, 800x350, 25 fps, 25 tbr, 25 tbn, 25 tbc
Stream mapping:
  Stream #0:0 -> #0:0 (ppm (native) -> h264 (libx264))
[libx264 @ 0x5555555e0800] using cpu capabilities: MMX2 SSE2Fast SSSE3 SSE4.2 AVX FMA3 BMI2 AVX2 AVX512
[libx264 @ 0x5555555e0800] profile High, level 3.0
Output #0, mpegts, to 'Vorticity.mp4':
  Metadata:
    encoder         : Lavf58.29.100
    Stream #0:0: Video: h264 (libx264), yuv420p, 800x350, q=-1--1, 25 fps, 90k tbn, 25 tbc
    Metadata:
      encoder         : Lavc58.54.100 libx264
    Side data:
      cpb: bitrate max/min/avg: 0/0/0 buffer size: 0 vbv_delay: -1
frame=    8 fps=0.4 q=17.0 size=      35kB time=00:00:00.28 bitrate=1036.6kbits/s speed=0.0139x    frame=    9 fps=0.2 q=17.0 size=      41kB time=00:00:00.32 bitrate=1038.7kbits/s speed=0.00794x    frame=   10 fps=0.2 q=18.0 size=      45kB time=00:00:00.36 bitrate=1023.5kbits/s speed=0.00611x    frame=   11 fps=0.1 q=17.0 size=      50kB time=00:00:00.40 bitrate=1030.2kbits/s speed=0.00514x    frame=   12 fps=0.1 q=17.0 size=      55kB time=00:00:00.44 bitrate=1028.8kbits/s speed=0.00456x    frame=   13 fps=0.1 q=17.0 size=      60kB time=00:00:00.48 bitrate=1018.3kbits/s speed=0.00428x    frame=   14 fps=0.1 q=17.0 size=      65kB time=00:00:00.52 bitrate=1021.0kbits/s speed=0.00409x    frame=   15 fps=0.1 q=17.0 size=      68kB time=00:00:00.56 bitrate= 999.1kbits/s speed=0.00391x    frame=   16 fps=0.1 q=17.0 size=      74kB time=00:00:00.60 bitrate=1005.2kbits/s speed=0.00367x    frame=   17 fps=0.1 q=17.0 size=      77kB time=00:00:00.64 bitrate= 991.7kbits/s speed=0.00353x    frame=   18 fps=0.1 q=17.0 size=      83kB time=00:00:00.68 bitrate=1001.9kbits/s speed=0.00341x    frame=   19 fps=0.1 q=16.0 size=      88kB time=00:00:00.72 bitrate= 996.4kbits/s speed=0.00328x    frame=   20 fps=0.1 q=16.0 size=      92kB time=00:00:00.76 bitrate= 987.5kbits/s speed=0.00317x    frame=   21 fps=0.1 q=16.0 size=      97kB time=00:00:00.80 bitrate= 988.9kbits/s speed=0.0031x    frame=   22 fps=0.1 q=17.0 size=     102kB time=00:00:00.84 bitrate= 995.5kbits/s speed=0.00302x    frame=   23 fps=0.1 q=16.0 size=     106kB time=00:00:00.88 bitrate= 986.1kbits/s speed=0.00294x    frame=   24 fps=0.1 q=17.0 size=     111kB time=00:00:00.92 bitrate= 992.3kbits/s speed=0.00289x    frame=   25 fps=0.1 q=17.0 size=     115kB time=00:00:00.96 bitrate= 982.3kbits/s speed=0.00286x    frame=   26 fps=0.1 q=17.0 size=     119kB time=00:00:01.00 bitrate= 977.6kbits/s speed=0.00284x    frame=   27 fps=0.1 q=17.0 size=     126kB time=00:00:01.04 bitrate= 990.6kbits/s speed=0.00283x    frame=   28 fps=0.1 q=17.0 size=     130kB time=00:00:01.08 bitrate= 987.3kbits/s speed=0.00281x    frame=   29 fps=0.1 q=17.0 size=     137kB time=00:00:01.12 bitrate=1003.1kbits/s speed=0.00279x    frame=   30 fps=0.1 q=16.0 size=     141kB time=00:00:01.16 bitrate= 998.3kbits/s speed=0.00276x    frame=   31 fps=0.1 q=16.0 size=     147kB time=00:00:01.20 bitrate=1005.2kbits/s speed=0.00274x    frame=   32 fps=0.1 q=16.0 size=     153kB time=00:00:01.24 bitrate=1011.6kbits/s speed=0.00272x    frame=   33 fps=0.1 q=16.0 size=     159kB time=00:00:01.28 bitrate=1017.5kbits/s speed=0.00269x    frame=   34 fps=0.1 q=17.0 size=     165kB time=00:00:01.32 bitrate=1026.6kbits/s speed=0.00267x    frame=   35 fps=0.1 q=17.0 size=     173kB time=00:00:01.36 bitrate=1039.5kbits/s speed=0.00265x    frame=   36 fps=0.1 q=17.0 size=     177kB time=00:00:01.40 bitrate=1034.5kbits/s speed=0.00264x    frame=   37 fps=0.1 q=17.0 size=     181kB time=00:00:01.44 bitrate=1027.7kbits/s speed=0.00264x    frame=   38 fps=0.1 q=17.0 size=     187kB time=00:00:01.48 bitrate=1037.5kbits/s speed=0.00264x    frame=   39 fps=0.1 q=16.0 size=     193kB time=00:00:01.52 bitrate=1041.9kbits/s speed=0.00264x    frame=   40 fps=0.1 q=16.0 size=     199kB time=00:00:01.56 bitrate=1043.2kbits/s speed=0.00263x    frame=   41 fps=0.1 q=16.0 size=     204kB time=00:00:01.60 bitrate=1042.5kbits/s speed=0.00263x    frame=   42 fps=0.1 q=16.0 size=     209kB time=00:00:01.64 bitrate=1044.5kbits/s speed=0.00262x    frame=   43 fps=0.1 q=16.0 size=     214kB time=00:00:01.68 bitrate=1043.8kbits/s speed=0.00261x    frame=   44 fps=0.1 q=16.0 size=     220kB time=00:00:01.72 bitrate=1045.8kbits/s speed=0.00261x    frame=   45 fps=0.1 q=16.0 size=     223kB time=00:00:01.76 bitrate=1040.0kbits/s speed=0.0026x    frame=   46 fps=0.1 q=17.0 size=     228kB time=00:00:01.80 bitrate=1039.4kbits/s speed=0.00259x    frame=   47 fps=0.1 q=17.0 size=     234kB time=00:00:01.84 bitrate=1042.2kbits/s speed=0.00258x    frame=   48 fps=0.1 q=17.0 size=     239kB time=00:00:01.88 bitrate=1041.6kbits/s speed=0.00256x    frame=   49 fps=0.1 q=17.0 size=     243kB time=00:00:01.92 bitrate=1037.9kbits/s speed=0.00257x    frame=   50 fps=0.1 q=17.0 size=     247kB time=00:00:01.96 bitrate=1032.1kbits/s speed=0.00257x    frame=   51 fps=0.1 q=16.0 size=     250kB time=00:00:02.00 bitrate=1024.2kbits/s speed=0.00255x    frame=   52 fps=0.1 q=17.0 size=     256kB time=00:00:02.04 bitrate=1026.3kbits/s speed=0.00253x    frame=   53 fps=0.1 q=17.0 size=     256kB time=00:00:02.08 bitrate=1008.2kbits/s speed=0.00252x    frame=   54 fps=0.1 q=17.0 size=     256kB time=00:00:02.12 bitrate= 989.2kbits/s speed=0.0025x    frame=   55 fps=0.1 q=17.0 size=     256kB time=00:00:02.16 bitrate= 970.9kbits/s speed=0.00249x    frame=   56 fps=0.1 q=17.0 size=     256kB time=00:00:02.20 bitrate= 953.2kbits/s speed=0.00249x    frame=   57 fps=0.1 q=17.0 size=     256kB time=00:00:02.24 bitrate= 936.2kbits/s speed=0.00248x    frame=   58 fps=0.1 q=17.0 size=     256kB time=00:00:02.28 bitrate= 919.8kbits/s speed=0.00247x    Error while decoding stream #0:0: Invalid data found when processing input
frame=   58 fps=0.1 q=17.0 size=     256kB time=00:00:02.28 bitrate= 919.8kbits/s speed=0.00242x    frame=   58 fps=0.1 q=17.0 Lsize=     282kB time=00:00:02.28 bitrate=1011.9kbits/s speed=0.00241x    
video:254kB audio:0kB subtitle:0kB other streams:0kB global headers:0kB muxing overhead: 10.688406%
[libx264 @ 0x5555555e0800] frame I:2     Avg QP:12.79  size:  3529
[libx264 @ 0x5555555e0800] frame P:56    Avg QP: 8.76  size:  4527
[libx264 @ 0x5555555e0800] mb I  I16..4: 54.0% 40.0%  6.0%
[libx264 @ 0x5555555e0800] mb P  I16..4: 45.6%  7.8%  1.9%  P16..4: 12.7%  4.5%  2.6%  0.0%  0.0%    skip:25.0%
[libx264 @ 0x5555555e0800] 8x8 transform intra:15.7% inter:62.3%
[libx264 @ 0x5555555e0800] coded y,uvDC,uvAC intra: 8.0% 22.8% 19.4% inter: 22.3% 31.7% 13.5%
[libx264 @ 0x5555555e0800] i16 v,h,dc,p: 49% 27% 24%  1%
[libx264 @ 0x5555555e0800] i8 v,h,dc,ddl,ddr,vr,hd,vl,hu: 16% 23% 45%  1%  2%  1%  5%  1%  7%
[libx264 @ 0x5555555e0800] i4 v,h,dc,ddl,ddr,vr,hd,vl,hu:  7% 36% 35%  1%  4%  2%  7%  2%  6%
[libx264 @ 0x5555555e0800] i8c dc,h,v,p: 63% 31%  4%  1%
[libx264 @ 0x5555555e0800] Weighted P-Frames: Y:48.2% UV:48.2%
[libx264 @ 0x5555555e0800] ref P L0: 28.0% 12.6% 21.7% 16.9%  8.1%  8.9%  3.8%
[libx264 @ 0x5555555e0800] kb/s:898.43
Exiting normally, received signal 2.
with_stations_air.c:181:error: [Thread debugging using libthread_db enabled]
with_stations_air.c:181:error: Using host libthread_db library "/lib/x86_64-linux-gnu/libthread_db.so.1".
with_stations_air.c:181:error: [New Thread 0x7ffff37f8700 (LWP 208015)]
with_stations_air.c:181:error: [New Thread 0x7ffff2ff7700 (LWP 208016)]
with_stations_air.c:181:error: [New Thread 0x7ffff27f6700 (LWP 208017)]
with_stations_air.c:181:error: Thread 1 "with_stations_a" received signal SIGINT, Interrupt.
